<svg xmlns="http://www.w3.org/2000/svg" width="104" height="104" viewBox="0 0 104 104">
    <path fill="#B2B2B2" d="M102.926 81.488v21.706H73.984V81.488h28.942zM58.556 99.43c.042.551-.371 1.031-.922 1.072-1.255.095-2.517.142-3.784.143-.451 0-.889-.006-1.328-.017-.552-.014-.988-.474-.974-1.026.015-.552.474-.988 1.026-.974.421.011.842.017 1.275.017 1.218 0 2.43-.046 3.635-.137.55-.041 1.03.372 1.072.922zm-15.693-2.045c1.587.371 3.196.662 4.822.87.548.07.935.57.865 1.118-.07.548-.57.935-1.119.865-1.694-.216-3.37-.519-5.023-.905-.538-.126-.872-.664-.746-1.202.126-.538.663-.872 1.201-.746zm25.522.074c.153.53-.153 1.085-.684 1.238-1.632.47-3.29.857-4.97 1.158-.543.098-1.063-.264-1.16-.807-.098-.544.263-1.064.807-1.161 1.612-.29 3.203-.66 4.77-1.112.53-.153 1.084.153 1.237.684zM33.61 94.19c1.48.688 2.995 1.3 4.54 1.835.523.18.8.75.62 1.272-.181.522-.75.799-1.273.618-1.61-.556-3.189-1.195-4.731-1.912-.5-.233-.718-.828-.485-1.329.233-.5.828-.718 1.329-.485zm65.698 1.769H77.602v1.447h21.706v-1.447zm-74.144-6.813c1.31.977 2.668 1.887 4.07 2.725.475.284.63.898.346 1.372-.284.474-.898.628-1.372.345-1.46-.874-2.876-1.822-4.24-2.84-.443-.33-.534-.956-.204-1.399.33-.442.957-.534 1.4-.203zm74.144 2.471H77.602v1.448h21.706v-1.448zM20.216 75.841v15.162H0V75.84h20.216zm79.092 11.435H77.602v1.447h21.706v-1.447zm-81.62-1.327H2.528v1.01h15.162v-1.01zm0-3.033H2.528v1.011h15.162v-1.01zm0-3.032H2.528v1.01h15.162v-1.01zm80.225-7.786c.491.253.685.855.433 1.347-.777 1.514-1.632 2.988-2.56 4.415-.3.463-.92.595-1.383.294-.463-.301-.594-.92-.293-1.384.89-1.37 1.71-2.785 2.457-4.239.252-.49.855-.685 1.346-.433zM8.247 65.712c.513 1.552 1.104 3.075 1.773 4.564.226.504 0 1.096-.503 1.322-.504.226-1.096.001-1.322-.503-.696-1.551-1.313-3.138-1.847-4.756-.174-.524.111-1.09.636-1.263.524-.173 1.09.111 1.263.636zm93.103-3.005c.533.146.846.697.7 1.23-.453 1.643-.989 3.259-1.605 4.843-.2.515-.78.77-1.295.57-.515-.201-.77-.78-.57-1.295.593-1.52 1.107-3.072 1.54-4.65.147-.532.698-.845 1.23-.698zM6.145 56.13c.185 1.629.453 3.24.801 4.832.118.54-.223 1.072-.763 1.19-.54.119-1.072-.223-1.19-.762-.364-1.658-.642-3.337-.835-5.034-.063-.548.332-1.044.88-1.106.549-.063 1.044.332 1.107.88zm47.69-15.978c5.796 0 10.494 4.698 10.494 10.494 0 5.795-4.698 10.494-10.494 10.494-5.796 0-10.494-4.699-10.494-10.494 0-5.796 4.698-10.494 10.494-10.494zm48.964 12.64c.551.035.97.51.935 1.061-.108 1.705-.302 3.396-.58 5.069-.092.545-.607.913-1.152.822-.544-.09-.912-.606-.822-1.15.268-1.606.454-3.23.558-4.867.035-.551.51-.97 1.061-.935zm-49.014-7.435c-.463 0-.84.376-.84.84v3.567h-3.567c-.428 0-.782.32-.833.735l-.007.105c0 .464.376.84.84.84h3.568v3.568c0 .428.32.78.734.833l.105.006c.464 0 .84-.376.84-.84v-3.567h3.568c.428 0 .781-.32.833-.735l.006-.105c0-.464-.376-.84-.84-.84h-3.567v-3.568c0-.428-.32-.78-.734-.833l-.106-.006zm-48.663-.135c.55.05.956.535.906 1.085-.128 1.437-.193 2.884-.193 4.342 0 .186.001.371.003.557.007.552-.436 1.005-.988 1.011-.553.006-1.005-.436-1.012-.988-.002-.193-.003-.387-.003-.58 0-1.518.067-3.024.201-4.52.05-.55.535-.956 1.086-.907zm98.226-1.58c.236 1.679.386 3.374.45 5.082.022.552-.409 1.016-.96 1.037-.553.02-1.017-.41-1.038-.962-.062-1.64-.206-3.268-.432-4.88-.077-.546.304-1.052.851-1.128.547-.077 1.053.304 1.13.851zm-96.12-8.196c.528.16.826.719.666 1.247-.473 1.56-.866 3.146-1.178 4.752-.106.543-.63.897-1.173.792-.542-.106-.896-.63-.79-1.173.324-1.674.734-3.326 1.227-4.951.16-.529.719-.827 1.247-.667zm93.668-1.73c.576 1.6 1.07 3.23 1.479 4.885.132.536-.195 1.078-.731 1.211s-1.078-.194-1.211-.73c-.393-1.589-.867-3.153-1.419-4.688-.187-.52.083-1.093.603-1.28.52-.187 1.092.083 1.28.603zm-89.61-7.41c.485.264.663.872.399 1.356-.783 1.433-1.493 2.905-2.125 4.412-.214.509-.8.748-1.31.534-.509-.213-.748-.8-.534-1.309.659-1.57 1.398-3.103 2.214-4.596.264-.484.872-.663 1.357-.398zm85.24-1.703c.887 1.452 1.7 2.949 2.435 4.485.239.498.028 1.095-.47 1.333-.498.239-1.095.028-1.334-.47-.705-1.474-1.485-2.91-2.338-4.304-.288-.472-.14-1.087.332-1.375.471-.288 1.087-.14 1.375.331zM24.73 0v7.833h8.592v15.162H13.107v-7.834H4.514V0h20.216zm65.582 16.45c1.164 1.241 2.265 2.54 3.297 3.893.335.44.25 1.067-.189 1.402-.439.335-1.066.25-1.401-.188-.991-1.3-2.048-2.547-3.166-3.74-.377-.402-.357-1.035.046-1.413.403-.377 1.035-.357 1.413.046zM30.795 17.94H15.634v1.011h15.161v-1.01zm0-3.032H15.634v1.01h15.161v-1.01zm51.8-5.17c1.39.98 2.731 2.03 4.016 3.147.417.362.461.993.099 1.41-.362.417-.994.462-1.41.1-1.234-1.072-2.522-2.08-3.858-3.022-.451-.318-.56-.941-.241-1.393.318-.451.942-.56 1.393-.242zm-51.8 2.138H15.634v1.01h15.161v-1.01zm-17.753-1.77h-6v1.012h6v-1.011zm60.673-5.353c1.562.678 3.088 1.435 4.571 2.268.482.27.653.88.383 1.362-.27.481-.88.652-1.362.382-1.424-.8-2.888-1.527-4.388-2.177-.506-.22-.739-.809-.52-1.315.22-.507.81-.74 1.316-.52zM22.204 7.075H7.042v1.011h15.162v-1.01zm20.245-4.11c.139.534-.182 1.08-.717 1.22-1.583.41-3.141.902-4.67 1.472-.517.193-1.093-.07-1.286-.587-.193-.518.07-1.094.587-1.287 1.593-.594 3.217-1.106 4.866-1.535.535-.138 1.08.182 1.22.717zM22.204 4.043H7.042v1.011h15.162v-1.01zm41.78-2.366c1.67.344 3.318.773 4.938 1.285.527.167.819.729.652 1.255-.166.527-.728.819-1.255.652-1.554-.491-3.135-.903-4.738-1.234-.541-.111-.89-.64-.778-1.18.112-.542.64-.89 1.182-.778zm-12.65-.97c.552-.027 1.021.398 1.048.95.028.551-.398 1.02-.95 1.048-1.638.08-3.264.244-4.873.488-.546.083-1.056-.292-1.14-.838-.082-.546.293-1.056.84-1.139 1.675-.255 3.369-.425 5.075-.509zm2.501-.061c1.71 0 3.41.085 5.094.256.55.056.95.546.894 1.096-.056.55-.546.95-1.096.894-1.617-.164-3.25-.246-4.892-.246-.552 0-1-.448-1-1 0-.553.448-1 1-1z"/>
</svg>
