<?xml version="1.0" encoding="UTF-8"?>
<svg width="148px" height="30px" viewBox="0 0 148 30" version="1.1" xmlns="http://www.w3.org/2000/svg" xmlns:xlink="http://www.w3.org/1999/xlink">
    <title>EF26D043-E14A-428B-BA98-D1EC0B5359E7</title>
    <g id="Symbols" stroke="none" stroke-width="1" fill="none" fill-rule="evenodd">
        <g id="Navigation-/-Header-+-CTA-My-Applications" transform="translate(-209.000000, -20.000000)">
            <g id="UI-Elements-/-Button-/-Tertiary-/-Icon" transform="translate(209.000000, 20.000000)">
                <rect id="background" stroke="#FFFFFF" x="0.5" y="0.5" width="147" height="29" rx="5"></rect>
                <g id="button-content" transform="translate(10.000000, 7.000000)" fill="#FFFFFF">
                    <g id="icon-/-app-menu" transform="translate(116.000000, 2.000000)" fill-rule="nonzero">
                        <g id="ic_app-menu">
                            <path d="M1.30274674,0 L3.76771184,0 C4.13030421,0 4.4559826,0.147626065 4.69231824,0.384604836 C4.92930033,0.621586923 5.07692308,0.947265319 5.07692308,1.30210029 L5.07692308,3.76706539 C5.07692308,4.12965776 4.92929701,4.45533615 4.69231824,4.69231824 C4.45533615,4.92930033 4.12965776,5.07692308 3.76771184,5.07692308 L1.30274674,5.07692308 C0.947281895,5.07692308 0.621586923,4.92929701 0.384604836,4.69231824 C0.14762275,4.45533615 0,4.12965776 0,3.76706539 L0,1.30210029 C0,0.947281895 0.148274173,0.620940472 0.384604836,0.384604836 C0.621586923,0.14762275 0.947265319,0 1.30274674,0 Z" id="Path"></path>
                            <path d="M8.22582366,0 L10.6907888,0 C11.0533811,0 11.3790595,0.147626065 11.6153952,0.384604836 C11.8523772,0.621586923 12,0.947265319 12,1.30210029 L12,3.76706539 C12,4.12965776 11.8523739,4.45533615 11.6153952,4.69231824 C11.3784131,4.92930033 11.0527347,5.07692308 10.6907888,5.07692308 L8.22582366,5.07692308 C7.87035882,5.07692308 7.54466385,4.92929701 7.30768176,4.69231824 C7.07069967,4.45533615 6.92307692,4.12965776 6.92307692,3.76706539 L6.92307692,1.30210029 C6.92307692,0.947281895 7.0713511,0.620940472 7.30768176,0.384604836 C7.54466385,0.14762275 7.87034224,0 8.22582366,0 Z" id="Path-Copy"></path>
                            <path d="M8.22582366,6.92307692 L10.6907888,6.92307692 C11.0533811,6.92307692 11.3790595,7.07070299 11.6153952,7.30768176 C11.8523772,7.54466385 12,7.87034224 12,8.22517721 L12,10.6901423 C12,11.0527347 11.8523739,11.3784131 11.6153952,11.6153952 C11.3784131,11.8523772 11.0527347,12 10.6907888,12 L8.22582366,12 C7.87035882,12 7.54466385,11.8523739 7.30768176,11.6153952 C7.07069967,11.3784131 6.92307692,11.0527347 6.92307692,10.6901423 L6.92307692,8.22517721 C6.92307692,7.87035882 7.0713511,7.5440174 7.30768176,7.30768176 C7.54466385,7.07069967 7.87034224,6.92307692 8.22582366,6.92307692 Z" id="Path-Copy-2"></path>
                            <path d="M1.30274674,6.92307692 L3.76771184,6.92307692 C4.13030421,6.92307692 4.4559826,7.07070299 4.69231824,7.30768176 C4.92930033,7.54466385 5.07692308,7.87034224 5.07692308,8.22517721 L5.07692308,10.6901423 C5.07692308,11.0527347 4.92929701,11.3784131 4.69231824,11.6153952 C4.45533615,11.8523772 4.12965776,12 3.76771184,12 L1.30274674,12 C0.947281895,12 0.621586923,11.8523739 0.384604836,11.6153952 C0.14762275,11.3784131 0,11.0527347 0,10.6901423 L0,8.22517721 C0,7.87035882 0.148274173,7.5440174 0.384604836,7.30768176 C0.621586923,7.07069967 0.947265319,6.92307692 1.30274674,6.92307692 Z" id="Path-Copy-3"></path>
                        </g>
                    </g>
                    <text id="label" font-family="RoobertENEL, sans-serif" font-size="12" font-weight="600" letter-spacing="1">
                        <tspan x="0.508" y="12">My Applications</tspan>
                    </text>
                </g>
            </g>
        </g>
    </g>
</svg>